<svg width="1440" height="509" viewBox="0 0 1440 509" fill="none" xmlns="http://www.w3.org/2000/svg">
<path opacity="0.3" d="M0 161C0 161 547.296 603.47 1440 452.5V508.975H0V161Z" fill="#022C22"/>
<path d="M1319.57 348.849V329.962H1320.48C1325.35 329.962 1329.3 326.189 1329.3 321.533V316.304H1303.48V235.926L1320.67 202.211C1322.12 199.356 1319.95 196.03 1316.63 196.03H1303.48V124.827L1318.09 96.5241C1319.56 93.6801 1317.4 90.3546 1314.08 90.3546H1303.48V72.8547H1303.16L1283.47 0L1264.57 72.8547H1264.27V90.3546H1254.82C1251.57 90.3546 1249.4 93.5769 1250.74 96.4094L1264.27 124.838V196.041H1249.57C1246.17 196.041 1244 199.493 1245.6 202.36L1264.27 235.938V315.742H1199.86V280.123L1213.82 256.683C1214.82 254.699 1213.31 252.383 1211.01 252.383H1199.86V191.213L1213.82 167.773C1214.82 165.789 1213.31 163.473 1211.01 163.473H1199.86V138.508L1188.62 107.591L1175.56 138.508V163.473H1164.41C1162.04 163.473 1160.54 165.87 1161.65 167.865L1175.56 191.213V248.919H1170.38C1167.45 243.277 1161.9 239.103 1155.24 237.876L1150.88 212.383L1146.97 237.887C1137.11 239.745 1129.69 248.048 1129.69 258.025V274.676C1126.29 271.522 1121.81 269.435 1116.83 268.976L1113.21 247.784L1109.9 269.424C1100.39 271.534 1093.29 279.664 1093.29 289.412V315.754H1067.72V294.251H1068.17C1070.19 294.251 1071.82 292.692 1071.82 290.765C1071.82 288.839 1070.19 287.279 1068.17 287.279H1067.72V266.075C1067.72 237.91 1047.65 214.229 1020.45 207.36L1006.31 181.088C1007.06 181.03 1007.78 180.915 1008.47 180.697C1010.2 180.124 1011.71 179.058 1012.67 177.681C1010.01 179.803 1006.41 180.262 1003.59 179.092C1000.76 177.957 998.795 175.273 998.711 172.429C998.519 169.597 1000.2 166.741 1002.91 165.354C1005.59 163.932 1009.22 164.046 1012.08 165.916C1011.52 165.296 1010.86 164.723 1010.1 164.276C1009.34 163.84 1008.5 163.507 1007.61 163.301C1006.71 163.118 1005.79 163.06 1004.85 163.117C1003.92 163.198 1003 163.427 1002.12 163.76C1000.35 164.448 998.855 165.709 997.799 167.246C996.768 168.817 996.276 170.686 996.348 172.544C996.468 174.402 997.152 176.214 998.327 177.681C999.526 179.126 1001.15 180.239 1002.98 180.755C1003.7 180.95 1004.44 181.064 1005.18 181.099L990.772 207.005C962.792 213.358 941.984 237.383 941.984 266.075V287.279H941.529C939.514 287.279 937.883 288.839 937.883 290.765C937.883 292.692 939.514 294.251 941.529 294.251H941.984V315.754H916.415V289.412C916.415 279.676 909.316 271.534 899.805 269.424L896.495 247.784L892.873 268.976C887.896 269.435 883.411 271.522 880.017 274.676V258.025C880.017 248.059 872.581 239.756 862.735 237.887L858.825 212.383L854.46 237.876C847.804 239.103 842.251 243.277 839.325 248.919H834.144V191.213L848.056 167.865C849.159 165.87 847.648 163.473 845.297 163.473H834.144V138.508L821.084 107.591L809.846 138.508V163.473H798.693C796.378 163.473 794.867 165.789 795.886 167.773L809.846 191.213V252.383H798.693C796.378 252.383 794.867 254.699 795.886 256.683L809.846 280.123V315.742H745.432V235.938L764.105 202.36C765.7 199.493 763.529 196.041 760.135 196.041H745.432V124.838L758.96 96.4094C760.303 93.5769 758.145 90.3546 754.883 90.3546H745.432V72.8547H745.132L726.231 0L706.539 72.8547H706.227V90.3546H695.625C692.303 90.3546 690.145 93.6801 691.608 96.5241L706.227 124.827V196.03H693.071C689.749 196.03 687.578 199.356 689.029 202.211L706.227 235.926V316.304H680.406V321.533C680.406 326.189 684.352 329.962 689.221 329.962H690.133V348.849H664V356.98C664 361.636 667.946 365.409 672.815 365.409V418H1336.96V365.409C1341.83 365.409 1345.77 361.636 1345.77 356.98V348.849H1319.64H1319.57Z" fill="#022C22"/>
<path d="M0 390.006C0 390.006 1179.5 474 1440 207V509H0V389.994V390.006Z" fill="#044634"/>
</svg>
